<?xml version="1.0" encoding="UTF-8"?>
<svg id="Layer_1" data-name="Layer 1" xmlns="http://www.w3.org/2000/svg" viewBox="0 0 247.05 376.32">
  <defs>
    <style>
      .cls-1 {
        fill: #a97c50;
      }
    </style>
  </defs>
  <g>
    <g>
      <polygon points="167.5 4.73 163.82 2.16 160.17 1.89 145.78 9.4 143.76 19.92 144.39 27.07 149.46 30.64 151.64 16.78 167.5 4.73"/>
      <path d="m201.63,32.74l-13.09,8.69L143.4,7.27c.82-1.1,3.82-4.17,5.26-4.89,2.92-1.46,5.02-1.99,6.56-2.25,13.06,8.86,25.94,17.58,46.41,32.6Z"/>
      <g>
        <path class="cls-1" d="m148.13,29.7l36.96,26.29c7.22,5.86,15.16,2.28,20.29-5.1,5.12-7.28,5.81-15.78-1.98-20.62-12.22-8.69-24.75-17.6-36.96-26.29-2.33-.57-4.56-.54-6.66-.07,26.95,19.18,27.41,19.08,38.48,26.97-1.77.41-3.61,1.31-5.36,2.61l-38.2-27.36c-.66.44-1.28.92-1.89,1.44l38.4,27.31c-.74.71-1.46,1.48-2.12,2.31-10.42-7.41-12.16-8.64-38.48-27.38-.3.36-.61.69-.89,1.07-4.23,5.66-5.5,12.81-1.59,18.81Zm40.81,9.66c4.66-6.56,11.94-9.37,16.27-6.28,4.33,3.08,4.07,10.89-.59,17.44-4.66,6.56-11.94,9.37-16.27,6.28-4.33-3.08-4.07-10.89.59-17.44Z"/>
        <path d="m188.35,56.8c4.33,3.08,11.61.28,16.27-6.28,4.66-6.55,4.92-14.35.59-17.44-4.33-3.08-11.61-.28-16.27,6.28-4.66,6.55-4.92,14.35-.59,17.44Z"/>
        <g>
          <path class="cls-1" d="m147.04,3.47c.61-.47,1.26-.89,1.93-1.26l4.19,3c-.64.39-1.26.83-1.85,1.3l-4.26-3.03Z"/>
          <path class="cls-1" d="m149.05,8.71c-.32.36-.65.71-.94,1.1-4.07,5.45-4.76,12.67-1.92,18.54l-2.99-2.13c-3.9-6-3.66-13.81.58-19.47.29-.39.61-.77.93-1.13l4.34,3.09Z"/>
          <path class="cls-1" d="m158.96,2.91c-1.45-1.03-2.73-1.93-3.9-2.75,2.11-.29,4.29-.19,6.44.34l2.99,2.13c-1.85-.22-3.71-.09-5.52.28Z"/>
        </g>
      </g>
    </g>
    <g>
      <polygon points="131 107.85 133.34 104.65 133.65 101.44 127.29 88.59 118.04 86.61 111.72 87.03 108.47 91.44 120.66 93.63 131 107.85"/>
      <path d="m105.63,137.46l-7.43-11.72,31.01-39.21c.95.75,3.61,3.45,4.21,4.73,1.23,2.61,1.67,4.47,1.86,5.83-8.06,11.36-16.01,22.57-29.66,40.36Z"/>
      <g>
        <path class="cls-1" d="m109.33,90.28l-23.91,32.13c-5.31,6.26-2.3,13.34,4.12,18.01,6.33,4.66,13.82,5.42,18.24-1.36,7.9-10.63,16-21.52,23.91-32.13.55-2.05.56-4.02.18-5.88-17.44,23.43-17.36,23.84-24.53,33.47-.33-1.57-1.09-3.21-2.2-4.78l24.87-33.21c-.38-.59-.79-1.15-1.24-1.69l-24.83,33.39c-.61-.66-1.28-1.32-2-1.91,6.74-9.06,7.86-10.57,24.89-33.46-.31-.27-.6-.55-.92-.8-4.92-3.84-11.21-5.09-16.58-1.76Zm-9.3,35.85c5.7,4.24,8.04,10.72,5.24,14.48-2.8,3.77-9.69,3.39-15.38-.85-5.7-4.24-8.04-10.72-5.24-14.48,2.8-3.77,9.69-3.39,15.38.85Z"/>
        <path d="m84.65,125.28c-2.8,3.76-.46,10.25,5.24,14.48,5.69,4.24,12.58,4.61,15.38.85,2.8-3.77.46-10.25-5.24-14.48-5.69-4.24-12.58-4.61-15.38-.85Z"/>
        <g>
          <path class="cls-1" d="m132.5,89.82c.4.55.76,1.13,1.08,1.72l-2.72,3.64c-.34-.57-.71-1.12-1.11-1.65l2.76-3.71Z"/>
          <path class="cls-1" d="m127.84,91.49c-.31-.29-.61-.59-.95-.85-4.73-3.69-11.09-4.44-16.33-2.04l1.93-2.6c5.37-3.33,12.26-2.97,17.17.88.34.27.67.55.98.85l-2.81,3.77Z"/>
          <path class="cls-1" d="m132.77,100.35c.94-1.26,1.75-2.37,2.5-3.39.21,1.87.09,3.79-.42,5.68l-1.93,2.6c.23-1.63.15-3.28-.15-4.88Z"/>
        </g>
      </g>
    </g>
    <g>
      <polygon points="179.59 192.2 182.01 197.48 185.89 200.16 206.75 201.11 215.81 190.63 219.75 182.21 216.43 174.91 205.02 189.02 179.59 192.2"/>
      <path d="m159.82,138.6l20.17-1.22,28.02,67.66c-1.62.69-6.94,2.19-9.01,2.05-4.2-.27-6.87-1.03-8.74-1.75-8.77-18.42-17.43-36.58-30.44-66.75Z"/>
      <g>
        <path class="cls-1" d="m217.29,176.83l-24.02-53.52c-4.22-11.26-15.36-12.42-25.85-7.49-10.41,4.83-16.68,13.91-11.16,24.4,7.94,17.7,16.1,35.84,24.02,53.53,2.22,2.16,4.72,3.57,7.36,4.41-17.52-39.03-18.09-39.22-25.28-55.27,2.23.69,4.86.88,7.65.57l24.72,55.53c1.02-.07,2.02-.2,3.03-.39l-24.97-55.6c1.28-.31,2.58-.7,3.85-1.21,6.77,15.09,7.9,17.6,25.02,55.73.56-.21,1.12-.38,1.68-.62,8.37-3.59,14.41-10.78,13.96-20.05Zm-39.09-37.39c-9.43,4.32-19.34,2.72-22.15-3.55-2.81-6.27,2.54-14.85,11.96-19.16,9.43-4.32,19.34-2.72,22.15,3.55,2.81,6.27-2.54,14.85-11.96,19.16Z"/>
        <path d="m190.16,120.28c-2.81-6.27-12.72-7.87-22.15-3.55-9.42,4.3-14.77,12.88-11.96,19.16,2.81,6.27,12.72,7.87,22.15,3.55,9.42-4.3,14.77-12.88,11.96-19.16Z"/>
        <g>
          <path class="cls-1" d="m201.5,206.93c-.98.12-1.97.18-2.96.16l-2.71-6.08c.97-.03,1.93-.11,2.89-.26l2.77,6.18Z"/>
          <path class="cls-1" d="m202.67,199.76c.59-.2,1.18-.37,1.76-.62,8.05-3.45,13.5-11.1,14.15-19.52l1.94,4.33c.45,9.26-4.88,17.86-13.26,21.44-.58.25-1.17.46-1.77.66l-2.82-6.29Z"/>
          <path class="cls-1" d="m187.9,199.8c.94,2.1,1.78,3.94,2.55,5.62-2.53-1.05-4.89-2.58-6.93-4.57-.65-1.44-1.29-2.88-1.94-4.33,1.92,1.45,4.07,2.52,6.32,3.28Z"/>
        </g>
      </g>
    </g>
    <g>
      <polygon points="108.86 239.31 107.64 242 107.91 244.4 114.53 252.78 121.59 252.8 126.13 251.52 127.82 247.8 118.59 248.09 108.86 239.31"/>
      <path d="m122.79,213.81l7.22,7.4-16.56,33.38c-.81-.4-3.16-1.96-3.8-2.8-1.3-1.71-1.9-3-2.26-3.96,4.13-9.53,8.19-18.93,15.4-34.01Z"/>
      <g>
        <path class="cls-1" d="m127.37,248.78l12.48-27.12c2.9-5.38-.38-10.08-5.78-12.5-5.34-2.42-10.92-1.82-13.09,3.81-4.13,8.97-8.35,18.16-12.48,27.12-.09,1.58.21,3.02.77,4.31,9.1-19.78,8.98-20.06,12.73-28.19.48,1.1,1.29,2.17,2.34,3.15l-13.01,28.06c.37.37.75.71,1.16,1.04l12.96-28.18c.55.39,1.13.76,1.75,1.09-3.52,7.64-4.1,8.92-12.99,28.24.27.15.52.31.8.44,4.18,2.04,8.96,1.98,12.36-1.28Zm1.25-27.58c-4.81-2.21-7.52-6.58-6.06-9.75,1.46-3.18,6.55-3.97,11.35-1.75,4.81,2.21,7.52,6.58,6.06,9.75-1.46,3.18-6.55,3.97-11.35,1.75Z"/>
        <path d="m139.97,219.45c1.46-3.18-1.24-7.54-6.06-9.75-4.8-2.21-9.88-1.42-11.35,1.75-1.46,3.18,1.24,7.54,6.06,9.75,4.8,2.21,9.88,1.42,11.35-1.75Z"/>
        <g>
          <path class="cls-1" d="m110.54,252.69c-.38-.34-.73-.7-1.05-1.09l1.43-3.07c.33.36.69.71,1.07,1.03l-1.44,3.13Z"/>
          <path class="cls-1" d="m113.69,250.76c.27.16.54.33.83.47,4.02,1.96,8.78,1.53,12.22-1.03l-1.01,2.2c-3.4,3.26-8.48,4.06-12.66,2.01-.29-.14-.57-.3-.84-.47l1.47-3.19Z"/>
          <path class="cls-1" d="m108.72,245.06c-.49,1.07-.91,2-1.3,2.86-.44-1.33-.65-2.75-.57-4.2l1.01-2.19c.09,1.23.4,2.41.86,3.54Z"/>
        </g>
      </g>
    </g>
  </g>
  <g>
    <polygon points="44.68 296.74 42.1 300.41 41.83 304.06 49.34 318.46 59.87 320.47 67.01 319.85 70.59 314.78 56.73 312.59 44.68 296.74"/>
    <path d="m72.69,262.61l8.69,13.09-34.16,45.14c-1.1-.82-4.17-3.82-4.89-5.26-1.46-2.92-1.99-5.02-2.25-6.56,8.86-13.06,17.58-25.94,32.6-46.41Z"/>
    <g>
      <path class="cls-1" d="m69.64,316.11l26.29-36.96c5.86-7.22,2.28-15.16-5.1-20.29-7.28-5.12-15.78-5.81-20.62,1.98-8.69,12.22-17.6,24.75-26.29,36.96-.57,2.33-.54,4.56-.07,6.66,19.18-26.95,19.08-27.41,26.97-38.48.41,1.77,1.31,3.61,2.61,5.36l-27.36,38.2c.44.66.92,1.28,1.44,1.89l27.31-38.4c.71.74,1.48,1.46,2.31,2.12-7.41,10.42-8.64,12.16-27.38,38.48.36.3.69.61,1.07.89,5.66,4.23,12.81,5.5,18.81,1.59Zm9.66-40.81c-6.56-4.66-9.37-11.94-6.28-16.27,3.08-4.33,10.89-4.07,17.44.59,6.56,4.66,9.37,11.94,6.28,16.27-3.08,4.33-10.89,4.07-17.44-.59Z"/>
      <path d="m96.74,275.89c3.08-4.33.28-11.61-6.28-16.27-6.55-4.66-14.35-4.92-17.44-.59-3.08,4.33-.28,11.61,6.28,16.27,6.55,4.66,14.35,4.92,17.44.59Z"/>
      <g>
        <path class="cls-1" d="m43.41,317.19c-.47-.61-.89-1.26-1.26-1.93l3-4.19c.39.64.83,1.26,1.3,1.85l-3.03,4.26Z"/>
        <path class="cls-1" d="m48.65,315.19c.36.32.71.65,1.1.94,5.45,4.07,12.67,4.76,18.54,1.92l-2.13,2.99c-6,3.9-13.81,3.66-19.47-.58-.39-.29-.77-.61-1.13-.93l3.09-4.34Z"/>
        <path class="cls-1" d="m42.86,305.28c-1.03,1.45-1.93,2.73-2.75,3.9-.29-2.11-.19-4.29.34-6.44.71-1,1.42-1.99,2.13-2.99-.22,1.85-.09,3.71.28,5.52Z"/>
      </g>
    </g>
  </g>
  <g>
    <polygon points="112.98 374.82 116.84 375.72 119.92 374.75 129.25 363.86 127.45 354.57 124.59 348.92 119.26 347.66 122.02 359.74 112.98 374.82"/>
    <path d="m75.81,363.07l7.87-11.42,48.22,13.18c-.31,1.17-1.76,4.67-2.7,5.73-1.92,2.16-3.46,3.28-4.64,4-13.61-2.97-27.04-5.89-48.75-11.48Z"/>
    <g>
      <path class="cls-1" d="m120.66,348l-38.93-9.42c-7.84-2.43-13.17,3.11-14.96,10.85-1.8,7.65.42,14.84,8.4,16.25,12.87,3.11,26.07,6.3,38.93,9.42,2.1-.29,3.92-1.05,5.48-2.13-28.39-6.87-28.73-6.64-40.4-9.47,1.32-.92,2.53-2.26,3.54-3.9l40.3,9.88c.39-.58.75-1.17,1.07-1.8l-40.45-9.78c.37-.82.71-1.69.97-2.59,10.97,2.66,12.8,3.09,40.53,9.8.12-.39.27-.76.38-1.16,1.61-6.03.3-12.31-4.87-15.94Zm-36.63,5.48c-1.66,6.91-6.71,11.6-11.27,10.49-4.56-1.11-6.91-7.59-5.24-14.49,1.66-6.91,6.71-11.6,11.27-10.49,4.56,1.11,6.91,7.59,5.24,14.49Z"/>
      <path d="m78.79,338.99c-4.56-1.11-9.61,3.59-11.27,10.49-1.67,6.89.68,13.38,5.24,14.49,4.56,1.11,9.61-3.59,11.27-10.49,1.67-6.89-.68-13.38-5.24-14.49Z"/>
      <g>
        <path class="cls-1" d="m130.16,369.14c-.35.58-.74,1.14-1.16,1.67l-4.42-1.08c.39-.53.76-1.09,1.09-1.67l4.49,1.09Z"/>
        <path class="cls-1" d="m126.8,365.5c.14-.4.3-.79.41-1.21,1.55-5.8-.26-11.95-4.51-15.82l3.15.76c5.17,3.64,7.54,10.12,5.92,16.15-.11.42-.25.83-.39,1.23l-4.57-1.11Z"/>
        <path class="cls-1" d="m120.58,373.51c1.53.37,2.87.69,4.1.97-1.63.93-3.45,1.56-5.39,1.83l-3.15-.76c1.59-.43,3.07-1.14,4.43-2.05Z"/>
      </g>
    </g>
  </g>
  <g>
    <polygon points="38.95 192.14 41.96 194.73 45.14 195.28 58.44 189.92 61.12 180.84 61.19 174.51 57.04 170.93 53.93 182.93 38.95 192.14"/>
    <path d="m11.37,164.59l12.25-6.51,36.72,33.91c-.82.89-3.71,3.33-5.04,3.84-2.7,1.03-4.58,1.32-5.96,1.41-10.71-8.91-21.28-17.68-37.98-32.65Z"/>
    <g>
      <path class="cls-1" d="m58.13,171.88l-30.21-26.29c-5.84-5.77-13.12-3.31-18.27,2.73-5.13,5.96-6.46,13.37-.03,18.29,9.99,8.69,20.24,17.6,30.21,26.29,2,.71,3.96.87,5.85.63-22.03-19.17-22.44-19.13-31.49-27.02,1.59-.21,3.28-.84,4.94-1.83l31.21,27.34c.61-.33,1.2-.7,1.78-1.11l-31.39-27.31c.71-.56,1.41-1.17,2.06-1.85,8.51,7.41,9.94,8.64,31.46,27.38.29-.29.59-.55.87-.86,4.21-4.61,5.93-10.78,3.02-16.4Zm-35.03-12.01c-4.66,5.36-11.3,7.2-14.84,4.12-3.54-3.08-2.64-9.92,2.02-15.27,4.66-5.36,11.3-7.2,14.84-4.12,3.54,3.08,2.64,9.92-2.02,15.27Z"/>
      <path d="m25.11,144.6c-3.54-3.08-10.18-1.25-14.84,4.12-4.66,5.35-5.56,12.19-2.02,15.27,3.54,3.08,10.18,1.25,14.84-4.12,4.66-5.35,5.56-12.19,2.02-15.27Z"/>
      <g>
        <path class="cls-1" d="m56.82,195.02c-.58.36-1.18.67-1.8.94l-3.42-3c.6-.29,1.18-.62,1.73-.98l3.49,3.03Z"/>
        <path class="cls-1" d="m55.51,190.24c.31-.29.63-.57.92-.88,4.05-4.44,5.28-10.72,3.29-16.12l2.45,2.13c2.91,5.61,2.03,12.45-2.19,17.06-.29.32-.6.62-.92.91-1.1-.96-2.25-1.95-3.55-3.09Z"/>
        <path class="cls-1" d="m46.3,194.48c1.19,1.03,2.23,1.93,3.19,2.75-1.88.07-3.79-.2-5.63-.86l-2.44-2.13c1.61.35,3.26.4,4.88.23Z"/>
      </g>
    </g>
  </g>
  <g>
    <polygon points="232.14 284.64 237.43 282.22 240.1 278.35 241.05 257.49 230.57 248.42 222.16 244.49 214.85 247.81 228.97 259.22 232.14 284.64"/>
    <path d="m178.54,304.42l-1.22-20.17,67.66-28.02c.69,1.62,2.19,6.94,2.05,9.01-.27,4.2-1.03,6.87-1.75,8.74-18.42,8.77-36.58,17.43-66.75,30.44Z"/>
    <g>
      <path class="cls-1" d="m216.78,246.94l-53.52,24.02c-11.26,4.22-12.42,15.36-7.49,25.85,4.83,10.41,13.91,16.68,24.4,11.16,17.7-7.94,35.84-16.1,53.53-24.02,2.16-2.22,3.57-4.72,4.41-7.36-39.03,17.52-39.22,18.09-55.27,25.28.69-2.23.88-4.86.57-7.65l55.53-24.72c-.07-1.02-.2-2.02-.39-3.03l-55.6,24.97c-.31-1.28-.7-2.58-1.21-3.85,15.09-6.77,17.6-7.9,55.73-25.02-.21-.56-.38-1.12-.62-1.68-3.59-8.37-10.78-14.41-20.05-13.96Zm-37.39,39.09c4.32,9.43,2.72,19.34-3.55,22.15-6.27,2.81-14.85-2.54-19.16-11.96-4.32-9.43-2.72-19.34,3.55-22.15,6.27-2.81,14.85,2.54,19.16,11.96Z"/>
      <path d="m160.23,274.07c-6.27,2.81-7.87,12.72-3.55,22.15,4.3,9.42,12.88,14.77,19.16,11.96,6.27-2.81,7.87-12.72,3.55-22.15-4.3-9.42-12.88-14.77-19.16-11.96Z"/>
      <g>
        <path class="cls-1" d="m246.88,262.73c.12.98.18,1.97.16,2.96l-6.08,2.71c-.03-.97-.11-1.93-.26-2.89l6.18-2.77Z"/>
        <path class="cls-1" d="m239.7,261.56c-.2-.59-.37-1.18-.62-1.76-3.45-8.05-11.1-13.5-19.52-14.15l4.33-1.94c9.26-.45,17.86,4.88,21.44,13.26.25.58.46,1.17.66,1.77-1.95.88-3.98,1.79-6.29,2.82Z"/>
        <path class="cls-1" d="m239.75,276.33c2.1-.94,3.94-1.78,5.62-2.55-1.05,2.53-2.58,4.89-4.57,6.93l-4.33,1.94c1.45-1.92,2.52-4.07,3.28-6.32Z"/>
      </g>
    </g>
  </g>
  <g>
    <polygon points="64.07 46.3 66.76 47.51 69.15 47.24 77.54 40.62 77.56 33.57 76.28 29.03 72.56 27.33 72.85 36.57 64.07 46.3"/>
    <path d="m38.57,32.37l7.4-7.22,33.38,16.56c-.4.81-1.96,3.16-2.8,3.8-1.71,1.3-3,1.9-3.96,2.26-9.53-4.13-18.93-8.19-34.01-15.4Z"/>
    <g>
      <path class="cls-1" d="m73.54,27.78l-27.12-12.48c-5.38-2.9-10.08.38-12.5,5.78-2.42,5.34-1.82,10.92,3.81,13.09,8.97,4.13,18.16,8.35,27.12,12.48,1.58.09,3.02-.21,4.31-.77-19.78-9.1-20.06-8.98-28.19-12.73,1.1-.48,2.17-1.29,3.15-2.34l28.06,13.01c.37-.37.71-.75,1.04-1.16l-28.18-12.96c.39-.55.76-1.13,1.09-1.75,7.64,3.52,8.92,4.1,28.24,12.99.15-.27.31-.52.44-.8,2.04-4.18,1.98-8.96-1.28-12.36Zm-27.58-1.25c-2.21,4.81-6.58,7.52-9.75,6.06-3.18-1.46-3.97-6.55-1.75-11.35,2.21-4.81,6.58-7.52,9.75-6.06,3.18,1.46,3.97,6.55,1.75,11.35Z"/>
      <path d="m44.21,15.19c-3.18-1.46-7.54,1.24-9.75,6.06-2.21,4.8-1.42,9.88,1.75,11.35,3.18,1.46,7.54-1.24,9.75-6.06,2.21-4.8,1.42-9.88-1.75-11.35Z"/>
      <g>
        <path class="cls-1" d="m77.45,44.61c-.34.38-.7.73-1.09,1.05l-3.07-1.43c.36-.33.71-.69,1.03-1.07l3.13,1.44Z"/>
        <path class="cls-1" d="m75.52,41.47c.16-.27.33-.54.47-.83,1.96-4.02,1.53-8.78-1.03-12.22l2.2,1.01c3.26,3.4,4.06,8.48,2.01,12.66-.14.29-.3.57-.47.84l-3.19-1.47Z"/>
        <path class="cls-1" d="m69.82,46.43c1.07.49,2,.91,2.86,1.3-1.33.44-2.75.65-4.2.57l-2.19-1.01c1.23-.09,2.41-.4,3.54-.86Z"/>
      </g>
    </g>
  </g>
</svg>