<?xml version="1.0" encoding="UTF-8"?>
<svg id="Layer_1" data-name="Layer 1" xmlns="http://www.w3.org/2000/svg" viewBox="0 0 233.12 300.13">
  <defs>
    <style>
      .cls-1 {
        fill: #3a270b;
      }
    </style>
  </defs>
  <g>
    <g>
      <polygon points="45.9 137.92 47.92 139.34 49.92 139.49 57.84 135.36 58.95 129.57 58.61 125.64 55.82 123.68 54.62 131.3 45.9 137.92"/>
      <path d="m27.13,122.52l7.2-4.78,24.82,18.79c-.45.6-2.1,2.29-2.89,2.69-1.61.8-2.76,1.1-3.61,1.24-7.18-4.87-14.27-9.67-25.52-17.93Z"/>
      <g>
        <path class="cls-1" d="m56.55,124.2l-20.32-14.46c-3.97-3.22-8.34-1.25-11.16,2.81-2.81,4.01-3.19,8.68,1.09,11.34,6.72,4.78,13.61,9.68,20.32,14.46,1.28.32,2.51.3,3.66.04-14.82-10.55-15.07-10.49-21.16-14.83.97-.23,1.98-.72,2.95-1.43l21.01,15.05c.36-.24.7-.51,1.04-.79l-21.12-15.02c.41-.39.8-.81,1.16-1.27,5.73,4.08,6.68,4.75,21.16,15.06.16-.2.33-.38.49-.59,2.33-3.11,3.02-7.05.88-10.35Zm-22.44-5.31c-2.56,3.61-6.57,5.15-8.95,3.46-2.38-1.7-2.24-5.99.32-9.59,2.56-3.61,6.57-5.15,8.95-3.46,2.38,1.7,2.24,5.99-.32,9.59Z"/>
        <path d="m34.43,109.29c-2.38-1.7-6.39-.15-8.95,3.46-2.56,3.6-2.71,7.89-.32,9.59,2.38,1.7,6.39.15,8.95-3.46,2.56-3.6,2.71-7.89.32-9.59Z"/>
        <g>
          <path class="cls-1" d="m57.15,138.62c-.34.26-.69.49-1.06.69l-2.3-1.65c.35-.22.69-.45,1.02-.72l2.35,1.67Z"/>
          <path class="cls-1" d="m56.04,135.74c.17-.2.36-.39.52-.6,2.24-2.99,2.62-6.97,1.06-10.19l1.64,1.17c2.15,3.3,2.01,7.59-.32,10.71-.16.22-.33.42-.51.62l-2.39-1.7Z"/>
          <path class="cls-1" d="m50.59,138.93c.8.57,1.5,1.06,2.15,1.51-1.16.16-2.36.1-3.54-.19l-1.64-1.17c1.02.12,2.04.05,3.04-.16Z"/>
        </g>
      </g>
    </g>
    <g>
      <polygon points="65.97 81.21 64.68 82.97 64.51 84.74 68.01 91.81 73.1 92.9 76.57 92.67 78.36 90.24 71.65 89.04 65.97 81.21"/>
      <path d="m79.92,64.93l4.08,6.44-17.05,21.56c-.52-.41-1.98-1.9-2.32-2.6-.68-1.43-.92-2.46-1.02-3.21,4.44-6.25,8.8-12.41,16.31-22.2Z"/>
      <g>
        <path class="cls-1" d="m77.89,90.88l13.15-17.67c2.92-3.44,1.26-7.34-2.27-9.9-3.48-2.56-7.6-2.98-10.03.75-4.35,5.84-8.8,11.84-13.15,17.67-.3,1.12-.31,2.21-.1,3.23,9.59-12.89,9.55-13.11,13.49-18.4.18.86.6,1.77,1.21,2.63l-13.68,18.26c.21.32.43.63.68.93l13.66-18.36c.33.37.7.72,1.1,1.05-3.71,4.98-4.32,5.81-13.69,18.4.17.15.33.3.51.44,2.7,2.11,6.16,2.8,9.12.97Zm5.11-19.71c-3.14-2.33-4.42-5.89-2.88-7.97,1.54-2.07,5.33-1.86,8.46.47,3.14,2.33,4.42,5.89,2.88,7.97-1.54,2.07-5.33,1.86-8.46-.47Z"/>
        <path d="m91.46,71.63c1.54-2.07.26-5.64-2.88-7.97-3.13-2.33-6.92-2.54-8.46-.47-1.54,2.07-.26,5.64,2.88,7.97,3.13,2.33,6.92,2.54,8.46.47Z"/>
        <g>
          <path class="cls-1" d="m65.14,91.13c-.22-.3-.42-.62-.59-.95l1.5-2c.18.31.39.62.61.91l-1.52,2.04Z"/>
          <path class="cls-1" d="m67.71,90.21c.17.16.34.32.52.47,2.6,2.03,6.1,2.44,8.98,1.12l-1.06,1.43c-2.95,1.83-6.74,1.63-9.44-.48-.19-.15-.37-.3-.54-.46l1.54-2.08Z"/>
          <path class="cls-1" d="m65,85.34c-.52.69-.96,1.3-1.38,1.87-.12-1.03-.05-2.09.23-3.12l1.06-1.43c-.13.9-.08,1.8.08,2.68Z"/>
        </g>
        <polygon points="211.42 32.9 212.94 34.46 214.66 34.92 222.21 32.63 224.12 27.79 224.46 24.33 222.37 22.17 220.07 28.58 211.42 32.9"/>
        <path d="m197.66,16.46l7.03-2.97,18.46,20.37c-.49.45-2.2,1.64-2.95,1.86-1.53.43-2.57.5-3.33.48-5.43-5.4-10.79-10.73-19.21-19.74Z"/>
        <path class="cls-1" d="m222.92,22.74l-15.26-15.88c-2.92-3.45-7.03-2.45-10.14.6-3.1,3.01-4.19,7.01-.91,10.02,5.05,5.25,10.22,10.63,15.26,15.88,1.06.48,2.13.67,3.17.63-11.13-11.58-11.36-11.57-15.93-16.34.88-.04,1.84-.3,2.79-.76l15.76,16.5c.35-.15.69-.32,1.03-.52l-15.86-16.5c.42-.27.83-.57,1.22-.91,4.3,4.48,5.02,5.22,15.89,16.53.17-.15.35-.27.52-.43,2.53-2.32,3.78-5.62,2.46-8.83Zm-18.6-8.29c-2.81,2.71-6.54,3.39-8.33,1.53-1.79-1.86-.96-5.56,1.85-8.27,2.81-2.71,6.54-3.39,8.33-1.53,1.79,1.86.96,5.56-1.85,8.27Z"/>
        <path d="m206.17,6.18c-1.79-1.86-5.52-1.18-8.33,1.53-2.81,2.7-3.64,6.4-1.85,8.27,1.79,1.86,5.52,1.18,8.33-1.53,2.81-2.7,3.64-6.4,1.85-8.27Z"/>
        <g>
          <path class="cls-1" d="m221.07,35.35c-.33.17-.68.31-1.03.43l-1.73-1.81c.34-.13.67-.28,1-.45l1.76,1.83Z"/>
          <path class="cls-1" d="m220.59,32.67c.18-.14.37-.28.55-.44,2.43-2.23,3.42-5.61,2.59-8.67l1.24,1.29c1.32,3.22.5,6.92-2.03,9.24-.18.16-.36.31-.55.45l-1.79-1.86Z"/>
          <path class="cls-1" d="m215.33,34.54c.6.62,1.13,1.17,1.61,1.66-1.03-.05-2.06-.3-3.04-.74l-1.23-1.28c.87.27,1.76.38,2.66.36Z"/>
        </g>
      </g>
    </g>
    <g>
      <polygon points="39.25 34.83 37.92 31.92 35.78 30.45 24.31 29.93 19.33 35.69 17.16 40.32 18.99 44.34 25.26 36.58 39.25 34.83"/>
      <path d="m50.12,64.31l-11.09.67-15.41-37.21c.89-.38,3.82-1.2,4.95-1.13,2.31.15,3.78.57,4.81.96,4.82,10.13,9.59,20.12,16.74,36.71Z"/>
      <g>
        <path class="cls-1" d="m18.51,43.28l13.21,29.44c2.32,6.19,8.45,6.83,14.22,4.12,5.72-2.66,9.17-7.65,6.14-13.42-4.37-9.73-8.85-19.71-13.21-29.44-1.22-1.19-2.59-1.97-4.05-2.42,9.63,21.47,9.95,21.57,13.9,30.4-1.23-.38-2.67-.48-4.21-.31l-13.59-30.54c-.56.04-1.11.11-1.67.21l13.73,30.58c-.7.17-1.42.39-2.12.67-3.72-8.3-4.35-9.68-13.76-30.65-.31.12-.62.21-.92.34-4.6,1.97-7.92,5.93-7.68,11.03Zm21.5,20.56c5.19-2.38,10.64-1.5,12.18,1.95,1.55,3.45-1.4,8.17-6.58,10.54-5.19,2.38-10.64,1.5-12.18-1.95-1.55-3.45,1.4-8.17,6.58-10.54Z"/>
        <path d="m33.43,74.38c1.55,3.45,7,4.33,12.18,1.95,5.18-2.37,8.12-7.08,6.58-10.54-1.55-3.45-7-4.33-12.18-1.95-5.18,2.37-8.12,7.08-6.58,10.54Z"/>
        <g>
          <path class="cls-1" d="m27.2,26.73c.54-.07,1.08-.1,1.63-.09l1.49,3.35c-.53.01-1.06.06-1.59.14l-1.52-3.4Z"/>
          <path class="cls-1" d="m26.55,30.67c-.32.11-.65.2-.97.34-4.43,1.9-7.43,6.1-7.78,10.74l-1.07-2.38c-.25-5.1,2.68-9.82,7.29-11.79.32-.14.65-.25.97-.36.48,1.07.98,2.19,1.55,3.46Z"/>
          <path class="cls-1" d="m34.67,30.65c-.52-1.16-.98-2.16-1.4-3.09,1.39.58,2.69,1.42,3.81,2.52l1.07,2.38c-1.06-.8-2.24-1.39-3.48-1.8Z"/>
        </g>
      </g>
    </g>
    <g>
      <polygon points="78.15 8.92 78.81 7.44 78.67 6.12 75.02 1.51 71.15 1.5 68.65 2.21 67.72 4.25 72.79 4.09 78.15 8.92"/>
      <path d="m70.49,22.95l-3.97-4.07L75.62.52c.45.22,1.74,1.08,2.09,1.54.72.94,1.05,1.65,1.24,2.18-2.27,5.24-4.5,10.41-8.47,18.7Z"/>
      <g>
        <path class="cls-1" d="m67.96,3.71l-6.86,14.92c-1.6,2.96.21,5.54,3.18,6.87,2.94,1.33,6,1,7.2-2.1,2.27-4.93,4.59-9.99,6.86-14.92.05-.87-.11-1.66-.43-2.37-5,10.88-4.94,11.03-7,15.5-.27-.6-.71-1.2-1.29-1.73l7.16-15.43c-.2-.2-.41-.39-.64-.57l-7.13,15.5c-.3-.22-.62-.42-.97-.6,1.94-4.2,2.26-4.91,7.14-15.53-.15-.08-.29-.17-.44-.24-2.3-1.12-4.93-1.09-6.8.7Zm-.69,15.17c2.65,1.21,4.14,3.62,3.33,5.36-.8,1.75-3.6,2.18-6.24.96-2.65-1.21-4.14-3.62-3.33-5.36.81-1.75,3.6-2.18,6.24-.96Z"/>
        <path d="m61.04,19.84c-.81,1.75.68,4.15,3.33,5.36,2.64,1.22,5.44.78,6.24-.96.81-1.75-.68-4.15-3.33-5.36-2.64-1.22-5.44-.78-6.24.96Z"/>
        <g>
          <path class="cls-1" d="m77.22,1.56c.21.19.4.39.58.6l-.78,1.69c-.18-.2-.38-.39-.59-.57l.79-1.72Z"/>
          <path class="cls-1" d="m75.49,2.63c-.15-.09-.3-.18-.45-.26-2.21-1.08-4.83-.84-6.72.57l.56-1.21c1.87-1.79,4.66-2.23,6.96-1.11.16.08.31.16.46.26l-.81,1.75Z"/>
          <path class="cls-1" d="m78.22,5.76c.27-.59.5-1.1.72-1.57.24.73.36,1.51.31,2.31l-.55,1.21c-.05-.67-.22-1.33-.47-1.94Z"/>
        </g>
      </g>
    </g>
  </g>
  <g>
    <g>
      <polygon points="66.74 179.53 66.05 181.9 66.56 183.85 73.03 190.01 78.86 189.19 82.47 187.59 83.43 184.32 75.83 185.65 66.74 179.53"/>
      <path d="m75.25,156.79l6.85,5.27-9.76,29.56c-.72-.23-2.85-1.25-3.48-1.87-1.28-1.26-1.93-2.26-2.34-3.01,2.29-8.37,4.54-16.62,8.72-29.95Z"/>
      <g>
        <path class="cls-1" d="m83.17,185.18l7.12-23.91c1.77-4.8-1.51-8.29-6.26-9.65-4.7-1.37-9.24-.22-10.38,4.7-2.35,7.9-4.76,16.01-7.12,23.91.11,1.31.53,2.47,1.15,3.48,5.19-17.43,5.06-17.66,7.2-24.82.53.85,1.32,1.65,2.31,2.33l-7.45,24.74c.35.26.71.5,1.09.73l7.39-24.84c.5.26,1.03.5,1.58.69-2.01,6.74-2.34,7.86-7.41,24.89.24.09.47.19.71.27,3.7,1.2,7.64.58,10.08-2.51Zm-2.22-22.96c-4.24-1.26-7-4.55-6.16-7.35.84-2.8,4.95-4.05,9.18-2.79,4.24,1.26,7,4.55,6.16,7.35-.84,2.8-4.95,4.05-9.18,2.79Z"/>
        <path d="m90.13,159.43c.84-2.8-1.92-6.09-6.16-7.35-4.23-1.26-8.34-.01-9.18,2.79-.84,2.8,1.92,6.09,6.16,7.35,4.23,1.26,8.34.01,9.18-2.79Z"/>
        <g>
          <path class="cls-1" d="m69.72,190.4c-.35-.24-.68-.5-1-.78l.82-2.71c.32.26.65.51,1,.73l-.82,2.76Z"/>
          <path class="cls-1" d="m72.09,188.43c.24.1.48.21.74.29,3.56,1.15,7.44.23,9.99-2.29l-.58,1.93c-2.43,3.1-6.54,4.36-10.23,3.16-.26-.08-.51-.18-.75-.29l.84-2.81Z"/>
          <path class="cls-1" d="m67.31,184.3c-.28.94-.52,1.76-.74,2.52-.52-1.05-.86-2.2-.97-3.41l.58-1.93c.22,1,.61,1.95,1.13,2.82Z"/>
        </g>
      </g>
    </g>
    <g>
      <polygon points="126.9 180.21 124.81 179.56 123.09 179.97 117.53 185.56 118.14 190.73 119.48 193.94 122.35 194.85 121.33 188.12 126.9 180.21"/>
      <path d="m146.81,188.15l-4.78,5.95-25.91-9.17c.22-.63,1.15-2.49,1.71-3.03,1.14-1.11,2.03-1.66,2.7-2,7.34,2.18,14.59,4.32,26.28,8.26Z"/>
      <g>
        <path class="cls-1" d="m121.6,194.61l20.97,6.73c4.2,1.65,7.35-1.17,8.64-5.34,1.3-4.12.37-8.16-3.95-9.25-6.93-2.23-14.04-4.51-20.97-6.73-1.16.08-2.19.42-3.09.95,15.29,4.91,15.49,4.8,21.78,6.82-.76.45-1.48,1.14-2.1,2l-21.7-7.05c-.24.3-.46.61-.66.95l21.79,6.99c-.24.43-.46.9-.64,1.38-5.91-1.9-6.9-2.21-21.84-7.01-.08.21-.18.41-.25.62-1.13,3.24-.66,6.74,2.03,8.94Zm20.31-1.53c1.19-3.72,4.15-6.09,6.61-5.3,2.46.79,3.48,4.44,2.29,8.16-1.19,3.72-4.15,6.09-6.61,5.3-2.46-.79-3.48-4.44-2.29-8.16Z"/>
        <path d="m144.2,201.24c2.46.79,5.42-1.58,6.61-5.3,1.19-3.71.17-7.37-2.29-8.16-2.46-.79-5.42,1.58-6.61,5.3-1.19,3.71-.17,7.37,2.29,8.16Z"/>
        <g>
          <path class="cls-1" d="m117.24,182.63c.22-.31.45-.6.71-.87l2.38.77c-.24.28-.46.57-.66.87l-2.42-.78Z"/>
          <path class="cls-1" d="m118.94,184.76c-.09.21-.2.42-.27.65-1.08,3.12-.34,6.56,1.84,8.86l-1.7-.55c-2.69-2.2-3.72-5.85-2.6-9.09.08-.23.17-.44.27-.66l2.46.79Z"/>
          <path class="cls-1" d="m122.67,180.62c-.82-.26-1.55-.49-2.21-.7.93-.44,1.96-.72,3.03-.79l1.7.54c-.89.17-1.73.5-2.51.94Z"/>
        </g>
      </g>
    </g>
    <g>
      <polygon points="162.16 139.93 164.48 137.74 165.18 135.24 161.97 124.22 154.91 121.36 149.83 120.81 146.62 123.83 155.99 127.26 162.16 139.93"/>
      <path d="m137.77,159.75l-4.22-10.28,30.24-26.6c.65.72,2.37,3.22,2.67,4.32.61,2.23.68,3.76.64,4.86-8.03,7.84-15.94,15.57-29.33,27.7Z"/>
      <g>
        <path class="cls-1" d="m147.46,123.04l-23.59,22.01c-5.11,4.2-3.74,10.2.69,14.79,4.36,4.56,10.2,6.21,14.68,1.47,7.8-7.28,15.79-14.75,23.59-22.01.73-1.54,1.02-3.09.99-4.61-17.2,16.05-17.2,16.39-24.27,22.98-.04-1.29-.41-2.69-1.06-4.08l24.51-22.73c-.22-.52-.46-1.01-.74-1.51l-24.5,22.87c-.39-.61-.82-1.22-1.32-1.79,6.65-6.2,7.76-7.24,24.56-22.92-.21-.25-.4-.52-.62-.76-3.35-3.72-8.17-5.58-12.92-3.7Zm-12.52,26.99c3.92,4.14,4.85,9.58,2.09,12.16-2.77,2.58-8.18,1.32-12.09-2.82-3.92-4.14-4.85-9.58-2.09-12.16,2.77-2.58,8.18-1.32,12.09,2.82Z"/>
        <path d="m122.85,147.21c-2.77,2.58-1.84,8.02,2.09,12.16,3.91,4.14,9.33,5.4,12.09,2.82,2.77-2.58,1.84-8.02-2.09-12.16-3.91-4.14-9.33-5.4-12.09-2.82Z"/>
        <g>
          <path class="cls-1" d="m165.94,125.91c.24.49.44.99.61,1.51l-2.69,2.49c-.19-.5-.4-.99-.65-1.46l2.72-2.54Z"/>
          <path class="cls-1" d="m161.99,126.58c-.21-.27-.4-.55-.63-.8-3.23-3.58-8.17-5.06-12.67-3.89l1.91-1.78c4.74-1.88,10.16-.63,13.51,3.09.23.26.45.53.66.8l-2.77,2.59Z"/>
          <path class="cls-1" d="m164.64,134.26c.93-.87,1.73-1.62,2.47-2.33-.1,1.5-.47,3-1.15,4.42l-1.91,1.78c.41-1.26.59-2.56.58-3.87Z"/>
        </g>
      </g>
    </g>
    <g>
      <polygon points="199.25 168.38 200.86 168.53 202.06 167.97 205.25 163.03 204.01 159.36 202.53 157.22 200.3 157 202.09 161.75 199.25 168.38"/>
      <path d="m183.5,165.66l2.57-5.07,20.31,2.69c-.06.49-.46,1.99-.78,2.48-.66.98-1.22,1.52-1.66,1.88-5.69-.46-11.31-.9-20.44-1.97Z"/>
      <g>
        <path class="cls-1" d="m200.88,157.06l-16.33-1.68c-3.32-.55-5.18,1.99-5.48,5.23-.31,3.21.99,6.01,4.31,6.14,5.4.55,10.94,1.12,16.33,1.68.84-.24,1.53-.64,2.11-1.17-11.91-1.22-12.04-1.11-16.93-1.61.48-.45.9-1.06,1.22-1.78l16.92,1.79c.13-.26.24-.52.34-.79l-16.97-1.74c.11-.35.2-.73.25-1.11,4.6.47,5.37.55,17.01,1.74.03-.17.07-.33.09-.49.32-2.54-.56-5.01-2.86-6.21Zm-14.57,4.25c-.29,2.9-2.09,5.08-4,4.88-1.91-.2-3.23-2.7-2.93-5.59.29-2.9,2.09-5.08,4-4.88,1.91.2,3.23,2.7,2.93,5.59Z"/>
        <path d="m183.38,155.72c-1.91-.2-3.71,1.99-4,4.88-.3,2.89,1.01,5.4,2.93,5.59,1.91.2,3.71-1.99,4-4.88.3-2.89-1.01-5.4-2.93-5.59Z"/>
        <g>
          <path class="cls-1" d="m205.91,165.12c-.11.26-.24.5-.38.74l-1.85-.2c.13-.24.25-.48.35-.74l1.88.19Z"/>
          <path class="cls-1" d="m204.35,163.83c.04-.17.08-.34.1-.51.31-2.44-.76-4.84-2.71-6.18l1.32.14c2.3,1.19,3.62,3.69,3.3,6.23-.02.18-.05.35-.09.52l-1.92-.2Z"/>
          <path class="cls-1" d="m202.26,167.43c.64.07,1.2.12,1.72.17-.61.47-1.32.83-2.09,1.04l-1.32-.14c.62-.26,1.19-.63,1.69-1.08Z"/>
        </g>
      </g>
    </g>
  </g>
  <g>
    <g>
      <polygon points="221.98 124.43 224.35 123.72 225.72 122.25 227.41 113.48 223.57 109.01 220.28 106.83 217.01 107.79 222.23 113.48 221.98 124.43"/>
      <path d="m198.25,129.53l.74-8.61,30.15-7.74c.19.73.49,3.07.3,3.93-.37,1.76-.86,2.84-1.28,3.59-8.28,2.59-16.44,5.15-29.92,8.82Z"/>
      <g>
        <path class="cls-1" d="m217.87,107.54l-23.97,6.91c-4.99,1.1-6.17,5.74-4.75,10.48,1.38,4.7,4.81,7.9,9.56,6.2,7.92-2.29,16.05-4.63,23.97-6.91,1.04-.81,1.79-1.78,2.31-2.84-17.48,5.04-17.59,5.27-24.78,7.34.43-.9.67-2,.71-3.2l24.85-7.08c.03-.43.04-.87.02-1.31l-24.9,7.18c-.05-.56-.14-1.13-.27-1.7,6.76-1.95,7.88-2.27,24.96-7.2-.05-.25-.09-.5-.16-.75-.99-3.76-3.63-6.75-7.55-7.12Zm-18.13,14.26c1.23,4.25-.05,8.35-2.86,9.15-2.81.81-6.08-1.98-7.3-6.22-1.23-4.25.05-8.35,2.86-9.15,2.81-.81,6.08,1.98,7.3,6.22Z"/>
        <path d="m192.44,115.58c-2.81.81-4.09,4.9-2.86,9.15,1.22,4.25,4.49,7.03,7.3,6.22,2.81-.81,4.09-4.9,2.86-9.15-1.22-4.25-4.49-7.03-7.3-6.22Z"/>
        <g>
          <path class="cls-1" d="m229.53,116.05c0,.42-.05.84-.12,1.26l-2.72.78c.05-.41.07-.82.07-1.24l2.77-.8Z"/>
          <path class="cls-1" d="m226.59,115.12c-.05-.26-.08-.52-.15-.78-.95-3.62-3.82-6.39-7.32-7.17l1.94-.56c3.92.37,7.2,3.15,8.18,6.91.07.26.12.52.17.79l-2.81.81Z"/>
          <path class="cls-1" d="m225.69,121.37c.94-.27,1.76-.51,2.52-.74-.6,1.01-1.39,1.91-2.35,2.65l-1.94.56c.73-.72,1.31-1.57,1.77-2.47Z"/>
        </g>
      </g>
    </g>
    <g>
      <polygon points="190.09 73.42 190.66 75.53 191.94 76.76 199.65 78.42 203.67 75.11 205.65 72.25 204.86 69.34 199.75 73.84 190.09 73.42"/>
      <path d="m186.02,52.37l7.59.81,6.27,26.77c-.65.15-2.72.37-3.48.19-1.55-.36-2.49-.81-3.15-1.19-2.13-7.36-4.24-14.61-7.23-26.58Z"/>
      <g>
        <path class="cls-1" d="m205.07,70.11l-5.65-21.29c-.88-4.43-4.96-5.55-9.16-4.39-4.17,1.13-7.06,4.09-5.66,8.32,1.87,7.04,3.79,14.25,5.65,21.29.69.94,1.54,1.62,2.47,2.09-4.12-15.52-4.32-15.63-6.01-22.01.79.4,1.76.63,2.81.69l5.78,22.07c.38.04.76.05,1.15.05l-5.87-22.12c.49-.03,1-.1,1.51-.21,1.59,6,1.86,7,5.88,22.17.22-.04.44-.07.66-.12,3.34-.8,6.03-3.08,6.43-6.54Zm-12.25-16.27c-3.78,1.01-7.37-.21-8.03-2.7-.66-2.5,1.86-5.33,5.63-6.33,3.78-1.01,7.37.21,8.03,2.7.66,2.5-1.86,5.33-5.63,6.33Z"/>
        <path d="m198.45,47.5c-.66-2.5-4.25-3.71-8.03-2.7-3.77,1-6.29,3.84-5.63,6.33.66,2.5,4.25,3.71,8.03,2.7,3.77-1,6.29-3.84,5.63-6.33Z"/>
        <g>
          <path class="cls-1" d="m197.34,80.24c-.37-.02-.74-.06-1.11-.13l-.63-2.42c.36.05.73.08,1.09.09l.65,2.46Z"/>
          <path class="cls-1" d="m198.21,77.66c.23-.04.46-.06.69-.12,3.21-.77,5.71-3.25,6.47-6.33l.46,1.72c-.4,3.45-2.92,6.29-6.25,7.09-.23.06-.47.1-.7.13l-.66-2.5Z"/>
          <path class="cls-1" d="m192.71,76.75c.22.84.42,1.57.6,2.24-.88-.55-1.66-1.26-2.3-2.13l-.46-1.72c.63.66,1.36,1.19,2.15,1.61Z"/>
        </g>
      </g>
    </g>
    <g>
      <polygon points="137.15 65.47 134.05 64.71 131.57 65.46 124.02 74.12 125.43 81.6 127.7 86.18 131.98 87.25 129.81 77.51 137.15 65.47"/>
      <path d="m166.99,75.31l-6.38,9.1-38.72-11.1c.26-.94,1.43-3.74,2.2-4.58,1.55-1.71,2.79-2.6,3.74-3.17,10.93,2.53,21.72,5.02,39.15,9.74Z"/>
      <g>
        <path class="cls-1" d="m130.86,86.96l31.26,7.98c6.29,2.04,10.61-2.36,12.07-8.57,1.48-6.13-.28-11.94-6.69-13.15-10.34-2.64-20.94-5.34-31.26-7.98-1.69.21-3.15.81-4.42,1.66,22.8,5.82,23.08,5.63,32.45,8.03-1.06.72-2.04,1.79-2.86,3.1l-32.36-8.36c-.32.46-.61.94-.87,1.44l32.48,8.28c-.3.66-.58,1.35-.79,2.07-8.81-2.25-10.28-2.62-32.55-8.3-.1.31-.22.61-.31.93-1.32,4.83-.29,9.89,3.85,12.87Zm29.47-4.03c1.37-5.54,5.45-9.26,9.11-8.32,3.66.94,5.53,6.18,4.15,11.7-1.37,5.54-5.45,9.26-9.11,8.32-3.66-.94-5.53-6.18-4.15-11.7Z"/>
        <path d="m164.49,94.64c3.66.94,7.74-2.78,9.11-8.32,1.37-5.53-.49-10.77-4.15-11.7-3.66-.94-7.74,2.78-9.11,8.32-1.37,5.53.49,10.77,4.15,11.7Z"/>
        <g>
          <path class="cls-1" d="m123.31,69.86c.28-.47.6-.91.94-1.33l3.55.92c-.32.42-.61.87-.88,1.33l-3.61-.92Z"/>
          <path class="cls-1" d="m125.99,72.82c-.12.32-.24.64-.33.97-1.27,4.65.16,9.61,3.56,12.77l-2.53-.65c-4.14-2.98-6.02-8.21-4.69-13.04.09-.34.2-.66.32-.99l3.67.94Z"/>
          <path class="cls-1" d="m131.03,66.45c-1.23-.31-2.3-.58-3.29-.83,1.32-.73,2.78-1.22,4.34-1.42l2.53.64c-1.28.33-2.48.89-3.57,1.6Z"/>
        </g>
      </g>
    </g>
    <g>
      <polygon points="141.08 18.9 140.33 17.46 139.21 16.75 133.33 16.73 130.91 19.76 129.91 22.16 130.93 24.16 133.96 20.09 141.08 18.9"/>
      <path d="m147.29,33.63l-5.66.58-8.7-18.55c.45-.21,1.93-.69,2.51-.68,1.18.03,1.94.21,2.48.39,2.69,5.04,5.35,10,9.37,18.27Z"/>
      <g>
        <path class="cls-1" d="m130.66,23.63l7.4,14.65c1.32,3.09,4.47,3.29,7.36,1.79,2.87-1.47,4.52-4.08,2.84-6.94-2.45-4.84-4.96-9.81-7.4-14.65-.65-.58-1.37-.94-2.12-1.14,5.4,10.69,5.56,10.73,7.78,15.13-.64-.17-1.38-.19-2.16-.07l-7.62-15.2c-.28.03-.56.08-.85.14l7.7,15.22c-.36.1-.72.23-1.07.38-2.09-4.13-2.44-4.82-7.71-15.26-.16.07-.31.12-.46.19-2.31,1.1-3.92,3.18-3.68,5.76Zm11.44,9.98c2.6-1.32,5.4-.99,6.27.73.87,1.72-.53,4.17-3.13,5.49-2.6,1.32-5.4.99-6.27-.73-.87-1.72.53-4.17,3.13-5.49Z"/>
        <path d="m138.98,39.09c.87,1.72,3.67,2.05,6.27.73,2.6-1.31,4-3.77,3.13-5.49-.87-1.72-3.67-2.05-6.27-.73-2.6,1.31-4,3.77-3.13,5.49Z"/>
        <g>
          <path class="cls-1" d="m134.74,15.05c.28-.05.55-.07.83-.08l.84,1.67c-.27.02-.54.05-.81.11l-.85-1.69Z"/>
          <path class="cls-1" d="m134.49,17.06c-.16.06-.33.12-.49.19-2.22,1.06-3.66,3.25-3.74,5.61l-.6-1.19c-.24-2.58,1.16-5.04,3.47-6.14.16-.08.32-.14.49-.2l.87,1.72Z"/>
          <path class="cls-1" d="m138.65,16.88c-.29-.58-.55-1.08-.79-1.54.72.26,1.41.66,2,1.19l.6,1.18c-.56-.38-1.17-.66-1.82-.84Z"/>
        </g>
      </g>
    </g>
  </g>
  <g>
    <g>
      <polygon points="203.68 270.52 202.32 272.58 202.22 274.58 206.55 282.39 212.36 283.35 216.28 282.91 218.18 280.07 210.53 279.07 203.68 270.52"/>
      <path d="m218.6,251.36l4.96,7.07-18.15,25.29c-.61-.44-2.34-2.04-2.76-2.82-.84-1.59-1.17-2.73-1.33-3.57,4.69-7.3,9.3-14.51,17.27-25.97Z"/>
      <g>
        <path class="cls-1" d="m217.68,280.82l13.94-20.69c3.12-4.05,1.04-8.36-3.09-11.08-4.08-2.71-8.76-2.97-11.31,1.38-4.61,6.84-9.33,13.85-13.94,20.69-.28,1.29-.23,2.51.06,3.66,10.16-15.09,10.1-15.34,14.29-21.53.25.97.77,1.97,1.51,2.91l-14.51,21.39c.25.35.52.69.82,1.02l14.48-21.49c.4.4.83.78,1.3,1.13-3.93,5.83-4.58,6.8-14.51,21.54.2.16.39.32.6.47,3.17,2.25,7.12,2.84,10.37.61Zm4.74-22.57c-3.67-2.47-5.32-6.43-3.68-8.86,1.63-2.42,5.93-2.39,9.59.08,3.67,2.47,5.32,6.43,3.68,8.86-1.63,2.42-5.93,2.39-9.59-.08Z"/>
        <path d="m232.01,258.33c1.63-2.42,0-6.39-3.68-8.86-3.66-2.47-7.96-2.5-9.59-.08-1.63,2.42,0,6.39,3.68,8.86,3.66,2.47,7.96,2.5,9.59.08Z"/>
        <g>
          <path class="cls-1" d="m203.27,281.78c-.27-.33-.51-.68-.72-1.04l1.59-2.34c.23.35.47.68.74,1l-1.61,2.39Z"/>
          <path class="cls-1" d="m206.13,280.61c.2.17.4.35.62.5,3.05,2.16,7.03,2.44,10.22.8l-1.13,1.67c-3.24,2.23-7.54,2.21-10.71-.04-.22-.16-.43-.32-.63-.5l1.64-2.43Z"/>
          <path class="cls-1" d="m202.8,275.24c-.55.81-1.02,1.53-1.46,2.18-.19-1.16-.16-2.36.1-3.54l1.13-1.67c-.09,1.02,0,2.04.23,3.03Z"/>
        </g>
      </g>
    </g>
    <g>
      <polygon points="164.87 271.19 165.44 273.29 166.72 274.52 174.43 276.18 178.45 272.88 180.43 270.01 179.64 267.1 174.53 271.61 164.87 271.19"/>
      <path d="m160.8,250.14l7.59.81,6.27,26.77c-.65.15-2.72.37-3.48.19-1.55-.36-2.49-.81-3.15-1.19-2.13-7.36-4.24-14.61-7.23-26.58Z"/>
      <g>
        <path class="cls-1" d="m179.85,267.87l-5.65-21.29c-.88-4.43-4.96-5.55-9.16-4.39-4.17,1.13-7.06,4.09-5.66,8.32,1.87,7.04,3.79,14.25,5.65,21.29.69.94,1.54,1.62,2.47,2.09-4.12-15.52-4.32-15.63-6.01-22.01.79.4,1.76.63,2.81.69l5.78,22.07c.38.04.76.05,1.15.05l-5.87-22.12c.49-.03,1-.1,1.51-.21,1.59,6,1.86,7,5.88,22.17.22-.04.44-.07.66-.12,3.34-.8,6.03-3.08,6.43-6.54Zm-12.25-16.27c-3.78,1.01-7.37-.21-8.03-2.7-.66-2.5,1.86-5.33,5.63-6.33,3.78-1.01,7.37.21,8.03,2.7.66,2.5-1.86,5.33-5.63,6.33Z"/>
        <path d="m173.23,245.27c-.66-2.5-4.25-3.71-8.03-2.7-3.77,1-6.29,3.84-5.63,6.33.66,2.5,4.25,3.71,8.03,2.7,3.77-1,6.29-3.84,5.63-6.33Z"/>
        <g>
          <path class="cls-1" d="m172.12,278.01c-.37-.02-.74-.06-1.11-.13l-.63-2.42c.36.05.73.08,1.09.09l.65,2.46Z"/>
          <path class="cls-1" d="m172.99,275.43c.23-.04.46-.06.69-.12,3.21-.77,5.71-3.25,6.47-6.33l.46,1.72c-.4,3.45-2.92,6.29-6.25,7.09-.23.06-.47.1-.7.13l-.66-2.5Z"/>
          <path class="cls-1" d="m167.49,274.52c.22.84.42,1.57.6,2.24-.88-.55-1.66-1.26-2.3-2.13l-.46-1.72c.63.66,1.36,1.19,2.15,1.61Z"/>
        </g>
      </g>
    </g>
    <g>
      <polygon points="111.93 263.24 108.83 262.47 106.35 263.22 98.8 271.88 100.21 279.37 102.48 283.94 106.76 285.01 104.59 275.27 111.93 263.24"/>
      <path d="m141.77,273.07l-6.38,9.1-38.72-11.1c.26-.94,1.43-3.74,2.2-4.58,1.55-1.71,2.79-2.6,3.74-3.17,10.93,2.53,21.72,5.02,39.15,9.74Z"/>
      <g>
        <path class="cls-1" d="m105.64,284.73l31.26,7.98c6.29,2.04,10.61-2.36,12.07-8.57,1.48-6.13-.28-11.94-6.69-13.15-10.34-2.64-20.94-5.34-31.26-7.98-1.69.21-3.15.81-4.42,1.66,22.8,5.82,23.08,5.63,32.45,8.03-1.06.72-2.04,1.79-2.86,3.1l-32.36-8.36c-.32.46-.61.94-.87,1.44l32.48,8.28c-.3.66-.58,1.35-.79,2.07-8.81-2.25-10.28-2.62-32.55-8.3-.1.31-.22.61-.31.93-1.32,4.83-.29,9.89,3.85,12.87Zm29.47-4.03c1.37-5.54,5.45-9.26,9.11-8.32,3.66.94,5.53,6.18,4.15,11.7-1.37,5.54-5.45,9.26-9.11,8.32-3.66-.94-5.53-6.18-4.15-11.7Z"/>
        <path d="m139.27,292.4c3.66.94,7.74-2.78,9.11-8.32,1.37-5.53-.49-10.77-4.15-11.7-3.66-.94-7.74,2.78-9.11,8.32-1.37,5.53.49,10.77,4.15,11.7Z"/>
        <g>
          <path class="cls-1" d="m98.09,267.63c.28-.47.6-.91.94-1.33l3.55.92c-.32.42-.61.87-.88,1.33l-3.61-.92Z"/>
          <path class="cls-1" d="m100.77,270.59c-.12.32-.24.64-.33.97-1.27,4.65.16,9.61,3.56,12.77l-2.53-.65c-4.14-2.98-6.02-8.21-4.69-13.04.09-.34.2-.66.32-.99,1.14.29,2.32.59,3.67.94Z"/>
          <path class="cls-1" d="m105.81,264.21c-1.23-.31-2.3-.58-3.29-.83,1.32-.73,2.78-1.22,4.34-1.42l2.53.64c-1.28.33-2.48.89-3.57,1.6Z"/>
        </g>
      </g>
    </g>
    <g>
      <polygon points="115.86 216.67 115.11 215.22 113.99 214.52 108.11 214.5 105.69 217.53 104.69 219.92 105.71 221.92 108.75 217.85 115.86 216.67"/>
      <path d="m122.07,231.39l-5.66.58-8.7-18.55c.45-.21,1.93-.69,2.51-.68,1.18.03,1.94.21,2.48.39,2.69,5.04,5.35,10,9.37,18.27Z"/>
      <g>
        <path class="cls-1" d="m105.44,221.4l7.4,14.65c1.32,3.09,4.47,3.29,7.36,1.79,2.87-1.47,4.52-4.08,2.84-6.94-2.45-4.84-4.96-9.81-7.4-14.65-.65-.58-1.37-.94-2.12-1.14,5.4,10.69,5.56,10.73,7.78,15.13-.64-.17-1.38-.19-2.16-.07l-7.62-15.2c-.28.03-.56.08-.85.14l7.7,15.22c-.36.1-.72.23-1.07.38-2.09-4.13-2.44-4.82-7.71-15.26-.16.07-.31.12-.46.19-2.31,1.1-3.92,3.18-3.68,5.76Zm11.44,9.98c2.6-1.32,5.4-.99,6.27.73.87,1.72-.53,4.17-3.13,5.49-2.6,1.32-5.4.99-6.27-.73-.87-1.72.53-4.17,3.13-5.49Z"/>
        <path d="m113.76,236.86c.87,1.72,3.67,2.05,6.27.73,2.6-1.31,4-3.77,3.13-5.49-.87-1.72-3.67-2.05-6.27-.73-2.6,1.31-4,3.77-3.13,5.49Z"/>
        <g>
          <path class="cls-1" d="m109.52,212.81c.28-.05.55-.07.83-.08l.84,1.67c-.27.02-.54.05-.81.11l-.85-1.69Z"/>
          <path class="cls-1" d="m109.27,214.83c-.16.06-.33.12-.49.19-2.22,1.06-3.66,3.25-3.74,5.61l-.6-1.19c-.24-2.58,1.16-5.04,3.47-6.14.16-.08.32-.14.49-.2l.87,1.72Z"/>
          <path class="cls-1" d="m113.43,214.64c-.29-.58-.55-1.08-.79-1.54.72.26,1.41.66,2,1.19l.6,1.18c-.56-.38-1.17-.66-1.82-.84Z"/>
        </g>
      </g>
    </g>
  </g>
  <g>
    <g>
      <polygon points="22.7 180.77 20.33 180.07 18.38 180.57 12.19 187 12.98 192.84 14.56 196.45 17.83 197.43 16.54 189.82 22.7 180.77"/>
      <path d="m45.4,189.4l-5.3,6.82-29.51-9.91c.24-.72,1.26-2.84,1.89-3.47,1.27-1.27,2.27-1.92,3.03-2.32,8.36,2.33,16.6,4.63,29.9,8.88Z"/>
      <g>
        <path class="cls-1" d="m16.97,197.17l23.87,7.25c4.79,1.79,8.3-1.46,9.69-6.21,1.39-4.69.27-9.24-4.64-10.4-7.89-2.4-15.98-4.85-23.87-7.25-1.31.11-2.47.52-3.48,1.13,17.41,5.28,17.63,5.15,24.78,7.33-.85.52-1.65,1.32-2.34,2.3l-24.7-7.58c-.26.35-.51.7-.73,1.08l24.8,7.52c-.26.5-.5,1.03-.7,1.58-6.73-2.04-7.85-2.38-24.85-7.54-.09.24-.2.47-.28.71-1.22,3.69-.62,7.64,2.46,10.09Zm22.97-2.1c1.28-4.24,4.59-6.97,7.39-6.12,2.8.85,4.03,4.97,2.74,9.19-1.28,4.24-4.59,6.97-7.39,6.12-2.8-.85-4.03-4.97-2.74-9.19Z"/>
        <path d="m42.68,204.27c2.8.85,6.1-1.89,7.39-6.12,1.28-4.23.06-8.34-2.74-9.19-2.8-.85-6.1,1.89-7.39,6.12-1.28,4.23-.06,8.34,2.74,9.19Z"/>
        <g>
          <path class="cls-1" d="m11.82,183.69c.24-.35.5-.68.78-1l2.71.83c-.26.32-.51.65-.74,1l-2.75-.84Z"/>
          <path class="cls-1" d="m13.78,186.07c-.1.24-.21.48-.3.74-1.17,3.55-.27,7.44,2.24,10l-1.93-.59c-3.08-2.45-4.32-6.56-3.1-10.25.08-.26.18-.51.29-.75l2.8.85Z"/>
          <path class="cls-1" d="m17.93,181.31c-.94-.28-1.76-.53-2.52-.75,1.05-.52,2.2-.85,3.42-.95l1.93.59c-1.01.21-1.95.6-2.83,1.11Z"/>
        </g>
      </g>
    </g>
    <g>
      <polygon points="21.71 240.92 22.37 238.84 21.97 237.11 16.41 231.52 11.24 232.11 8.01 233.43 7.09 236.3 13.83 235.31 21.71 240.92"/>
      <path d="m13.66,260.79l-5.92-4.81,9.31-25.86c.63.22,2.48,1.17,3.03,1.73,1.1,1.14,1.65,2.04,1.99,2.71-2.22,7.33-4.4,14.57-8.4,26.23Z"/>
      <g>
        <path class="cls-1" d="m7.34,235.55l-6.85,20.94c-1.67,4.19,1.13,7.36,5.3,8.67,4.12,1.32,8.16.41,9.27-3.9,2.26-6.92,4.58-14.02,6.85-20.94-.07-1.16-.41-2.19-.93-3.1-4.99,15.27-4.88,15.47-6.94,21.74-.45-.76-1.13-1.48-1.98-2.11l7.16-21.67c-.3-.24-.61-.46-.94-.67l-7.11,21.75c-.43-.24-.9-.46-1.38-.65,1.93-5.9,2.25-6.88,7.13-21.8-.21-.08-.41-.18-.62-.26-3.24-1.14-6.73-.69-8.95,1.98Zm1.42,20.32c3.72,1.21,6.07,4.18,5.27,6.63-.8,2.45-4.46,3.46-8.17,2.25-3.72-1.21-6.07-4.18-5.27-6.63.8-2.45,4.46-3.46,8.17-2.25Z"/>
        <path d="m.59,258.11c-.8,2.45,1.55,5.42,5.27,6.63,3.71,1.21,7.37.21,8.17-2.25.8-2.45-1.55-5.42-5.27-6.63-3.71-1.21-7.37-.21-8.17,2.25Z"/>
        <g>
          <path class="cls-1" d="m19.34,231.25c.3.22.59.45.86.71l-.78,2.37c-.28-.24-.56-.46-.87-.67l.79-2.42Z"/>
          <path class="cls-1" d="m17.2,232.94c-.21-.09-.42-.2-.65-.28-3.11-1.1-6.56-.38-8.87,1.79l.55-1.69c2.22-2.68,5.87-3.69,9.11-2.55.23.08.44.17.66.27l-.8,2.46Z"/>
          <path class="cls-1" d="m21.32,236.69c.27-.82.5-1.54.71-2.21.44.94.71,1.96.77,3.03l-.55,1.69c-.17-.89-.49-1.73-.93-2.52Z"/>
        </g>
      </g>
    </g>
    <g>
      <polygon points="61.8 276.39 63.98 278.72 66.47 279.44 77.52 276.29 80.41 269.24 80.99 264.17 77.98 260.93 74.5 270.29 61.8 276.39"/>
      <path d="m42.11,251.91l10.31-4.17,26.44,30.38c-.73.64-3.24,2.35-4.34,2.65-2.23.59-3.76.66-4.86.62-7.79-8.07-15.49-16.03-27.55-29.48Z"/>
      <g>
        <path class="cls-1" d="m78.77,261.79l-21.89-23.7c-4.17-5.13-10.18-3.79-14.79.62-4.58,4.34-6.26,10.17-1.55,14.67,7.24,7.84,14.66,15.87,21.89,23.7,1.53.74,3.08,1.04,4.61,1.01-15.96-17.29-16.29-17.28-22.85-24.4,1.29-.03,2.69-.39,4.09-1.04l22.6,24.63c.52-.21,1.02-.46,1.51-.73l-22.74-24.62c.61-.39,1.22-.82,1.79-1.31,6.17,6.68,7.2,7.79,22.79,24.68.26-.21.52-.39.77-.62,3.74-3.33,5.63-8.14,3.77-12.9Zm-26.92-12.66c-4.16,3.9-9.61,4.8-12.17,2.02-2.56-2.78-1.27-8.19,2.88-12.08,4.16-3.9,9.61-4.8,12.17-2.02,2.56,2.78,1.27,8.19-2.88,12.08Z"/>
        <path d="m54.73,237.05c-2.56-2.78-8.01-1.88-12.17,2.02-4.16,3.89-5.45,9.3-2.88,12.08,2.56,2.78,8.01,1.88,12.17-2.02,4.16-3.89,5.45-9.3,2.88-12.08Z"/>
        <g>
          <path class="cls-1" d="m75.8,280.24c-.49.24-1,.44-1.51.6l-2.48-2.7c.5-.18.99-.39,1.46-.64l2.53,2.74Z"/>
          <path class="cls-1" d="m75.15,276.3c.27-.21.55-.4.81-.63,3.59-3.21,5.1-8.15,3.96-12.65l1.77,1.92c1.85,4.75.58,10.16-3.16,13.5-.26.23-.53.45-.81.65l-2.57-2.78Z"/>
          <path class="cls-1" d="m67.46,278.91c.86.93,1.62,1.74,2.31,2.49-1.5-.11-3-.49-4.41-1.17l-1.77-1.92c1.25.42,2.56.6,3.87.6Z"/>
        </g>
      </g>
    </g>
    <g>
      <polygon points="194.41 219.6 194.25 221.22 194.81 222.42 199.73 225.63 203.41 224.41 205.55 222.95 205.78 220.71 201.02 222.48 194.41 219.6"/>
      <path d="m197.21,203.87l5.06,2.59-2.8,20.3c-.49-.07-1.99-.47-2.47-.79-.98-.66-1.52-1.23-1.87-1.67.49-5.69.96-11.3,2.08-20.43Z"/>
      <g>
        <path class="cls-1" d="m205.72,221.3l1.76-16.32c.57-3.32-1.96-5.19-5.2-5.5-3.21-.33-6.01.96-6.16,4.28-.58,5.4-1.18,10.93-1.76,16.32.23.84.64,1.54,1.16,2.11,1.28-11.9,1.17-12.03,1.7-16.92.44.49,1.05.91,1.77,1.23l-1.88,16.91c.26.13.52.24.79.34l1.83-16.96c.35.11.72.2,1.1.26-.5,4.6-.58,5.37-1.83,17,.17.03.32.07.49.09,2.54.33,5.02-.53,6.22-2.83Zm-4.17-14.6c-2.9-.31-5.07-2.11-4.86-4.03.21-1.91,2.72-3.21,5.61-2.9,2.9.31,5.07,2.11,4.86,4.03-.21,1.91-2.72,3.21-5.61,2.9Z"/>
        <path d="m207.16,203.8c.21-1.91-1.97-3.72-4.86-4.03-2.89-.31-5.4.99-5.61,2.9-.21,1.91,1.97,3.72,4.86,4.03,2.89.31,5.4-.99,5.61-2.9Z"/>
        <g>
          <path class="cls-1" d="m197.63,226.28c-.26-.11-.5-.24-.74-.38l.21-1.85c.24.13.48.25.74.35l-.2,1.88Z"/>
          <path class="cls-1" d="m198.93,224.72c.17.04.34.08.51.1,2.44.32,4.84-.74,6.19-2.67l-.14,1.32c-1.2,2.29-3.71,3.6-6.25,3.26-.18-.02-.35-.06-.52-.09l.21-1.92Z"/>
          <path class="cls-1" d="m195.35,222.62c-.07.64-.13,1.2-.18,1.72-.46-.62-.82-1.32-1.03-2.09l.14-1.32c.26.62.63,1.19,1.07,1.69Z"/>
        </g>
      </g>
    </g>
  </g>
</svg>